{
  "source": "C:\\Users\\Peter\\Desktop\\stuff\\MIUN\\quantitative_research\\video_compression\\videos\\BVI-HD\\BVI-HD_CDVL_videos\\ORIG\\Toys_1920x1080_30fps.mp4",
  "output": "C:\\Users\\Peter\\Desktop\\stuff\\MIUN\\quantitative_research\\video_compression\\compressed_videos\\BVI-HD\\hevc\\1\\Toys_1920x1080_30fps_hevc.mp4",
  "codec": "hevc",
  "ok": "Input #0, mov,mp4,m4a,3gp,3g2,mj2, from 'C:\\Users\\Peter\\Desktop\\stuff\\MIUN\\quantitative_research\\video_compression\\videos\\BVI-HD\\BVI-HD_CDVL_videos\\ORIG\\Toys_1920x1080_30fps.mp4':\n  Metadata:\n    major_brand     : isom\n    minor_version   : 512\n    compatible_brands: isomiso2avc1mp41\n    encoder         : Lavf54.28.101\n  Duration: 00:00:05.00, start: 0.000000, bitrate: 270887 kb/s\n  Stream #0:0[0x1](und): Video: h264 (High 4:4:4 Predictive) (avc1 / 0x31637661), yuv420p(progressive), 1920x1080, 270883 kb/s, 30 fps, 30 tbr, 30 tbn (default)\n    Metadata:\n      handler_name    : VideoHandler\n      vendor_id       : [0][0][0][0]\n[out#0/mp4 @ 00000263ae55ac00] Codec AVOption b:a (set bitrate (in bits/s)) has not been used for any stream. The most likely reason is either wrong type (e.g. a video option with no video streams) or that it is a private option of some decoder which was not actually used for any stream.\nStream mapping:\n  Stream #0:0 -> #0:0 (h264 (native) -> hevc (libx265))\nPress [q] to stop, [?] for help\n[libx265 @ 00000263af0600c0] Unknown option: \"aq-mode.\nx265 [info]: HEVC encoder version 4.1+190-8f11c33ac\nx265 [info]: build info [Windows][GCC 15.1.0][64 bit] 10bit\nx265 [info]: using cpu capabilities: MMX2 SSE2Fast LZCNT SSSE3 SSE4.2 AVX FMA3 BMI2 AVX2\nx265 [info]: Main 10 profile, Level-4 (Main tier)\nx265 [info]: Thread pool created using 12 threads\nx265 [info]: Slices                              : 1\nx265 [info]: frame threads / pool features       : 3 / wpp(17 rows)\nx265 [info]: Coding QT: max CU size, min CU size : 64 / 8\nx265 [info]: Residual QT: max TU size, max depth : 32 / 1 inter / 1 intra\nx265 [info]: ME / range / subpel / merge         : star / 57 / 3 / 3\nx265 [info]: Keyframe min / max / scenecut / bias  : 25 / 250 / 40 / 5.00 \nx265 [info]: Lookahead / bframes / badapt        : 25 / 4 / 2\nx265 [info]: b-pyramid / weightp / weightb       : 1 / 1 / 0\nx265 [info]: References / ref-limit  cu / depth  : 4 / on / on\nx265 [info]: AQ: mode / str / qg-size / cu-tree  : 2 / 1.0 / 32 / 1\nx265 [info]: Rate Control / qCompress            : ABR-1000 kbps / 0.60\nx265 [info]: VBV/HRD buffer / max-rate / init    : 1000 / 1000 / 0.750\nx265 [info]: tools: rect limit-modes rd=4 psy-rd=2.00 rdoq=2 psy-rdoq=1.00\nx265 [info]: tools: rskip mode=1 signhide tmvp strong-intra-smoothing lslices=4\nx265 [info]: tools: deblock sao dhdr10-info\nOutput #0, mp4, to 'C:\\Users\\Peter\\Desktop\\stuff\\MIUN\\quantitative_research\\video_compression\\compressed_videos\\BVI-HD\\hevc\\1\\Toys_1920x1080_30fps_hevc.mp4':\n  Metadata:\n    major_brand     : isom\n    minor_version   : 512\n    compatible_brands: isomiso2avc1mp41\n    encoder         : Lavf62.3.100\n  Stream #0:0(und): Video: hevc (hev1 / 0x31766568), yuv420p10le(tv, progressive), 1920x1080, q=2-31, 1000 kb/s, 30 fps, 15360 tbn (default)\n    Metadata:\n      encoder         : Lavc62.11.100 libx265\n      handler_name    : VideoHandler\n      vendor_id       : [0][0][0][0]\n    Side data:\n      cpb: bitrate max/min/avg: 1000000/0/1000000 buffer size: 1000000 vbv_delay: N/A\nframe=    0 fps=0.0 q=0.0 size=       0KiB time=N/A bitrate=N/A speed=N/A elapsed=0:00:01.05    \nframe=    0 fps=0.0 q=0.0 size=       0KiB time=N/A bitrate=N/A speed=N/A elapsed=0:00:01.59    \nframe=    0 fps=0.0 q=0.0 size=       0KiB time=N/A bitrate=N/A speed=N/A elapsed=0:00:02.11    \nframe=    0 fps=0.0 q=0.0 size=       0KiB time=N/A bitrate=N/A speed=N/A elapsed=0:00:02.63    \nframe=    0 fps=0.0 q=0.0 size=       0KiB time=N/A bitrate=N/A speed=N/A elapsed=0:00:03.17    \nframe=    0 fps=0.0 q=0.0 size=       0KiB time=N/A bitrate=N/A speed=N/A elapsed=0:00:03.68    \nframe=    0 fps=0.0 q=0.0 size=       0KiB time=N/A bitrate=N/A speed=N/A elapsed=0:00:04.21    \nframe=    0 fps=0.0 q=0.0 size=       0KiB time=N/A bitrate=N/A speed=N/A elapsed=0:00:04.72    \nframe=    0 fps=0.0 q=0.0 size=       0KiB time=N/A bitrate=N/A speed=N/A elapsed=0:00:05.25    \nframe=    0 fps=0.0 q=0.0 size=       0KiB time=N/A bitrate=N/A speed=N/A elapsed=0:00:05.77    \nframe=    0 fps=0.0 q=0.0 size=       0KiB time=N/A bitrate=N/A speed=N/A elapsed=0:00:06.29    \nframe=    0 fps=0.0 q=0.0 size=       0KiB time=N/A bitrate=N/A speed=N/A elapsed=0:00:06.80    \nframe=    0 fps=0.0 q=0.0 size=       0KiB time=N/A bitrate=N/A speed=N/A elapsed=0:00:07.32    \nframe=    1 fps=0.1 q=42.3 size=       0KiB time=-00:00:00.03 bitrate=N/A speed=N/A elapsed=0:00:07.84    \nframe=    2 fps=0.2 q=49.0 size=       0KiB time=00:00:00.00 bitrate=N/A speed=   0x elapsed=0:00:08.35    \nframe=    4 fps=0.5 q=51.0 size=       0KiB time=00:00:00.06 bitrate=   5.3kbits/s speed=0.00751x elapsed=0:00:08.87    \nframe=    4 fps=0.4 q=51.0 size=       0KiB time=00:00:00.06 bitrate=   5.3kbits/s speed=0.00709x elapsed=0:00:09.40    \nframe=    4 fps=0.4 q=51.0 size=       0KiB time=00:00:00.06 bitrate=   5.3kbits/s speed=0.00672x elapsed=0:00:09.92    \nframe=    5 fps=0.5 q=51.0 size=       0KiB time=00:00:00.10 bitrate=   3.5kbits/s speed=0.00958x elapsed=0:00:10.43    \nframe=    5 fps=0.5 q=51.0 size=       0KiB time=00:00:00.10 bitrate=   3.5kbits/s speed=0.00913x elapsed=0:00:10.95    \nframe=    6 fps=0.5 q=45.8 size=       0KiB time=00:00:00.13 bitrate=   2.6kbits/s speed=0.0116x elapsed=0:00:11.48    \nframe=    6 fps=0.5 q=45.8 size=       0KiB time=00:00:00.13 bitrate=   2.6kbits/s speed=0.0111x elapsed=0:00:12.04    \nframe=    7 fps=0.6 q=48.1 size=       0KiB time=00:00:00.16 bitrate=   2.1kbits/s speed=0.0132x elapsed=0:00:12.59    \nframe=    7 fps=0.5 q=48.1 size=       0KiB time=00:00:00.16 bitrate=   2.1kbits/s speed=0.0127x elapsed=0:00:13.14    \nframe=    7 fps=0.5 q=48.1 size=       0KiB time=00:00:00.16 bitrate=   2.1kbits/s speed=0.0122x elapsed=0:00:13.67    \nframe=    7 fps=0.5 q=48.1 size=       0KiB time=00:00:00.16 bitrate=   2.1kbits/s speed=0.0117x elapsed=0:00:14.21    \nframe=    7 fps=0.5 q=48.1 size=       0KiB time=00:00:00.16 bitrate=   2.1kbits/s speed=0.0113x elapsed=0:00:14.76    \nframe=    7 fps=0.5 q=48.1 size=       0KiB time=00:00:00.16 bitrate=   2.1kbits/s speed=0.0109x elapsed=0:00:15.29    \nframe=    7 fps=0.4 q=48.1 size=       0KiB time=00:00:00.16 bitrate=   2.1kbits/s speed=0.0105x elapsed=0:00:15.83    \nframe=    7 fps=0.4 q=48.1 size=       0KiB time=00:00:00.16 bitrate=   2.1kbits/s speed=0.0102x elapsed=0:00:16.36    \nframe=    7 fps=0.4 q=48.1 size=       0KiB time=00:00:00.16 bitrate=   2.1kbits/s speed=0.00984x elapsed=0:00:16.93    \nframe=    7 fps=0.4 q=48.1 size=       0KiB time=00:00:00.16 bitrate=   2.1kbits/s speed=0.00949x elapsed=0:00:17.56    \nframe=    8 fps=0.4 q=48.0 size=       0KiB time=00:00:00.20 bitrate=   1.8kbits/s speed=0.011x elapsed=0:00:18.17    \nframe=    9 fps=0.5 q=48.9 size=       0KiB time=00:00:00.23 bitrate=   1.5kbits/s speed=0.0124x elapsed=0:00:18.77    \nframe=    9 fps=0.5 q=48.9 size=       0KiB time=00:00:00.23 bitrate=   1.5kbits/s speed=0.0121x elapsed=0:00:19.33    \nframe=    9 fps=0.5 q=48.9 size=       0KiB time=00:00:00.23 bitrate=   1.5kbits/s speed=0.0117x elapsed=0:00:19.91    \nframe=   10 fps=0.5 q=43.8 size=       0KiB time=00:00:00.26 bitrate=   1.3kbits/s speed=0.013x elapsed=0:00:20.50    \nframe=   11 fps=0.5 q=47.2 size=       0KiB time=00:00:00.30 bitrate=   1.2kbits/s speed=0.0142x elapsed=0:00:21.09    \nframe=   11 fps=0.5 q=47.2 size=       0KiB time=00:00:00.30 bitrate=   1.2kbits/s speed=0.0139x elapsed=0:00:21.65    \nframe=   11 fps=0.5 q=47.2 size=       0KiB time=00:00:00.30 bitrate=   1.2kbits/s speed=0.0135x elapsed=0:00:22.22    \nframe=   11 fps=0.5 q=47.2 size=       0KiB time=00:00:00.30 bitrate=   1.2kbits/s speed=0.0131x elapsed=0:00:22.89    \nframe=   11 fps=0.5 q=47.2 size=       0KiB time=00:00:00.30 bitrate=   1.2kbits/s speed=0.0128x elapsed=0:00:23.50    \nframe=   11 fps=0.5 q=47.2 size=       0KiB time=00:00:00.30 bitrate=   1.2kbits/s speed=0.0125x elapsed=0:00:24.04    \nframe=   11 fps=0.4 q=47.2 size=       0KiB time=00:00:00.30 bitrate=   1.2kbits/s speed=0.0122x elapsed=0:00:24.65    \nframe=   12 fps=0.5 q=47.9 size=       0KiB time=00:00:00.33 bitrate=   1.1kbits/s speed=0.0132x elapsed=0:00:25.23    \nframe=   12 fps=0.5 q=47.9 size=       0KiB time=00:00:00.33 bitrate=   1.1kbits/s speed=0.0129x elapsed=0:00:25.83    \nframe=   12 fps=0.5 q=47.9 size=       0KiB time=00:00:00.33 bitrate=   1.1kbits/s speed=0.0126x elapsed=0:00:26.46    \nframe=   13 fps=0.5 q=49.0 size=       0KiB time=00:00:00.36 bitrate=   1.0kbits/s speed=0.0136x elapsed=0:00:27.03    \nframe=   13 fps=0.5 q=49.0 size=       0KiB time=00:00:00.36 bitrate=   1.0kbits/s speed=0.0133x elapsed=0:00:27.59    \nframe=   13 fps=0.5 q=49.0 size=       0KiB time=00:00:00.36 bitrate=   1.0kbits/s speed=0.013x elapsed=0:00:28.16    \nframe=   13 fps=0.5 q=49.0 size=       0KiB time=00:00:00.36 bitrate=   1.0kbits/s speed=0.0128x elapsed=0:00:28.74    \nframe=   13 fps=0.4 q=49.0 size=       0KiB time=00:00:00.36 bitrate=   1.0kbits/s speed=0.0125x elapsed=0:00:29.27    \nframe=   13 fps=0.4 q=49.0 size=       0KiB time=00:00:00.36 bitrate=   1.0kbits/s speed=0.0123x elapsed=0:00:29.84    \nframe=   14 fps=0.5 q=42.7 size=       0KiB time=00:00:00.40 bitrate=   0.9kbits/s speed=0.0132x elapsed=0:00:30.40    \nframe=   14 fps=0.5 q=42.7 size=       0KiB time=00:00:00.40 bitrate=   0.9kbits/s speed=0.0129x elapsed=0:00:30.94    \nframe=   14 fps=0.4 q=42.7 size=       0KiB time=00:00:00.40 bitrate=   0.9kbits/s speed=0.0127x elapsed=0:00:31.49    \nframe=   15 fps=0.5 q=48.4 size=       0KiB time=00:00:00.43 bitrate=   0.8kbits/s speed=0.0135x elapsed=0:00:32.02    \nframe=   15 fps=0.5 q=48.4 size=       0KiB time=00:00:00.43 bitrate=   0.8kbits/s speed=0.0133x elapsed=0:00:32.61    \nframe=   15 fps=0.5 q=48.4 size=       0KiB time=00:00:00.43 bitrate=   0.8kbits/s speed=0.0131x elapsed=0:00:33.20    \nframe=   15 fps=0.4 q=48.4 size=       0KiB time=00:00:00.43 bitrate=   0.8kbits/s speed=0.0128x elapsed=0:00:33.74    \nframe=   15 fps=0.4 q=48.4 size=       0KiB time=00:00:00.43 bitrate=   0.8kbits/s speed=0.0126x elapsed=0:00:34.27    \nframe=   15 fps=0.4 q=48.4 size=       0KiB time=00:00:00.43 bitrate=   0.8kbits/s speed=0.0124x elapsed=0:00:34.82    \nframe=   16 fps=0.5 q=49.0 size=       0KiB time=00:00:00.46 bitrate=   0.8kbits/s speed=0.0132x elapsed=0:00:35.37    \nframe=   16 fps=0.4 q=49.0 size=       0KiB time=00:00:00.46 bitrate=   0.8kbits/s speed=0.013x elapsed=0:00:35.90    \nframe=   16 fps=0.4 q=49.0 size=       0KiB time=00:00:00.46 bitrate=   0.8kbits/s speed=0.0128x elapsed=0:00:36.44    \nframe=   17 fps=0.5 q=49.0 size=       0KiB time=00:00:00.50 bitrate=   0.7kbits/s speed=0.0135x elapsed=0:00:36.98    \nframe=   17 fps=0.5 q=49.0 size=       0KiB time=00:00:00.50 bitrate=   0.7kbits/s speed=0.0133x elapsed=0:00:37.52    \nframe=   17 fps=0.4 q=49.0 size=       0KiB time=00:00:00.50 bitrate=   0.7kbits/s speed=0.0131x elapsed=0:00:38.06    \nframe=   17 fps=0.4 q=49.0 size=       0KiB time=00:00:00.50 bitrate=   0.7kbits/s speed=0.0129x elapsed=0:00:38.65    \nframe=   17 fps=0.4 q=49.0 size=       0KiB time=00:00:00.50 bitrate=   0.7kbits/s speed=0.0128x elapsed=0:00:39.21    \nframe=   17 fps=0.4 q=49.0 size=       0KiB time=00:00:00.50 bitrate=   0.7kbits/s speed=0.0126x elapsed=0:00:39.79    \nframe=   17 fps=0.4 q=49.0 size=       0KiB time=00:00:00.50 bitrate=   0.7kbits/s speed=0.0124x elapsed=0:00:40.35    \nframe=   18 fps=0.4 q=42.1 size=       0KiB time=00:00:00.53 bitrate=   0.7kbits/s speed=0.013x elapsed=0:00:40.88    \nframe=   18 fps=0.4 q=42.1 size=       0KiB time=00:00:00.53 bitrate=   0.7kbits/s speed=0.0129x elapsed=0:00:41.41    \nframe=   18 fps=0.4 q=42.1 size=       0KiB time=00:00:00.53 bitrate=   0.7kbits/s speed=0.0127x elapsed=0:00:41.92    \nframe=   19 fps=0.4 q=47.5 size=       0KiB time=00:00:00.56 bitrate=   0.6kbits/s speed=0.0133x elapsed=0:00:42.45    \nframe=   19 fps=0.4 q=47.5 size=       0KiB time=00:00:00.56 bitrate=   0.6kbits/s speed=0.0132x elapsed=0:00:42.98    \nframe=   19 fps=0.4 q=47.5 size=       0KiB time=00:00:00.56 bitrate=   0.6kbits/s speed=0.013x elapsed=0:00:43.51    \nframe=   20 fps=0.5 q=49.0 size=       0KiB time=00:00:00.60 bitrate=   0.6kbits/s speed=0.0136x elapsed=0:00:44.02    \nframe=   20 fps=0.4 q=49.0 size=       0KiB time=00:00:00.60 bitrate=   0.6kbits/s speed=0.0135x elapsed=0:00:44.56    \nframe=   20 fps=0.4 q=49.0 size=       0KiB time=00:00:00.60 bitrate=   0.6kbits/s speed=0.0133x elapsed=0:00:45.09    \nframe=   22 fps=0.5 q=47.3 size=       0KiB time=00:00:00.66 bitrate=   0.5kbits/s speed=0.0146x elapsed=0:00:45.61    \nframe=   22 fps=0.5 q=47.3 size=       0KiB time=00:00:00.66 bitrate=   0.5kbits/s speed=0.0144x elapsed=0:00:46.14    \nframe=   22 fps=0.5 q=47.3 size=       0KiB time=00:00:00.66 bitrate=   0.5kbits/s speed=0.0143x elapsed=0:00:46.65    \nframe=   22 fps=0.5 q=47.3 size=       0KiB time=00:00:00.66 bitrate=   0.5kbits/s speed=0.0141x elapsed=0:00:47.17    \nframe=   23 fps=0.5 q=48.0 size=       0KiB time=00:00:00.70 bitrate=   0.5kbits/s speed=0.0147x elapsed=0:00:47.69    \nframe=   24 fps=0.5 q=47.9 size=       0KiB time=00:00:00.73 bitrate=   0.5kbits/s speed=0.0152x elapsed=0:00:48.22    \nframe=   24 fps=0.5 q=47.9 size=       0KiB time=00:00:00.73 bitrate=   0.5kbits/s speed=0.015x elapsed=0:00:48.73    \nframe=   24 fps=0.5 q=47.9 size=       0KiB time=00:00:00.73 bitrate=   0.5kbits/s speed=0.0149x elapsed=0:00:49.25    \nframe=   24 fps=0.5 q=47.9 size=       0KiB time=00:00:00.73 bitrate=   0.5kbits/s speed=0.0147x elapsed=0:00:49.78    \nframe=   26 fps=0.5 q=46.8 size=       0KiB time=00:00:00.80 bitrate=   0.4kbits/s speed=0.0159x elapsed=0:00:50.31    \nframe=   26 fps=0.5 q=46.8 size=       0KiB time=00:00:00.80 bitrate=   0.4kbits/s speed=0.0157x elapsed=0:00:50.85    \nframe=   27 fps=0.5 q=48.0 size=       0KiB time=00:00:00.83 bitrate=   0.4kbits/s speed=0.0162x elapsed=0:00:51.37    \nframe=   27 fps=0.5 q=48.0 size=       0KiB time=00:00:00.83 bitrate=   0.4kbits/s speed=0.0161x elapsed=0:00:51.90    \nframe=   27 fps=0.5 q=48.0 size=       0KiB time=00:00:00.83 bitrate=   0.4kbits/s speed=0.0159x elapsed=0:00:52.43    \nframe=   27 fps=0.5 q=48.0 size=       0KiB time=00:00:00.83 bitrate=   0.4kbits/s speed=0.0157x elapsed=0:00:52.97    \nframe=   28 fps=0.5 q=47.0 size=       0KiB time=00:00:00.86 bitrate=   0.4kbits/s speed=0.0162x elapsed=0:00:53.50    \nframe=   28 fps=0.5 q=47.0 size=       0KiB time=00:00:00.86 bitrate=   0.4kbits/s speed=0.016x elapsed=0:00:54.03    \nframe=   28 fps=0.5 q=47.0 size=       0KiB time=00:00:00.86 bitrate=   0.4kbits/s speed=0.0159x elapsed=0:00:54.56    \nframe=   29 fps=0.5 q=47.0 size=       0KiB time=00:00:00.90 bitrate=   0.4kbits/s speed=0.0163x elapsed=0:00:55.09    \nframe=   29 fps=0.5 q=47.0 size=       0KiB time=00:00:00.90 bitrate=   0.4kbits/s speed=0.0162x elapsed=0:00:55.62    \nframe=   29 fps=0.5 q=47.0 size=       0KiB time=00:00:00.90 bitrate=   0.4kbits/s speed=0.016x elapsed=0:00:56.13    \nframe=   30 fps=0.5 q=41.9 size=       0KiB time=00:00:00.93 bitrate=   0.4kbits/s speed=0.0165x elapsed=0:00:56.64    \nframe=   31 fps=0.5 q=47.2 size=       0KiB time=00:00:00.96 bitrate=   0.4kbits/s speed=0.0169x elapsed=0:00:57.16    \nframe=   31 fps=0.5 q=47.2 size=       0KiB time=00:00:00.96 bitrate=   0.4kbits/s speed=0.0168x elapsed=0:00:57.68    \nframe=   31 fps=0.5 q=47.2 size=       0KiB time=00:00:00.96 bitrate=   0.4kbits/s speed=0.0166x elapsed=0:00:58.22    \nframe=   31 fps=0.5 q=47.2 size=       0KiB time=00:00:00.96 bitrate=   0.4kbits/s speed=0.0165x elapsed=0:00:58.74    \nframe=   32 fps=0.5 q=47.8 size=       0KiB time=00:00:01.00 bitrate=   0.4kbits/s speed=0.0169x elapsed=0:00:59.27    \nframe=   33 fps=0.6 q=48.0 size=       0KiB time=00:00:01.03 bitrate=   0.3kbits/s speed=0.0173x elapsed=0:00:59.79    \nframe=   33 fps=0.5 q=48.0 size=       0KiB time=00:00:01.03 bitrate=   0.3kbits/s speed=0.0171x elapsed=0:01:00.33    \nframe=   33 fps=0.5 q=48.0 size=       0KiB time=00:00:01.03 bitrate=   0.3kbits/s speed=0.017x elapsed=0:01:00.89    \nframe=   33 fps=0.5 q=48.0 size=       0KiB time=00:00:01.03 bitrate=   0.3kbits/s speed=0.0168x elapsed=0:01:01.46    \nframe=   33 fps=0.5 q=48.0 size=       0KiB time=00:00:01.03 bitrate=   0.3kbits/s speed=0.0167x elapsed=0:01:01.99    \nframe=   34 fps=0.5 q=41.8 size=       0KiB time=00:00:01.06 bitrate=   0.3kbits/s speed=0.0171x elapsed=0:01:02.49    \nframe=   35 fps=0.6 q=46.6 size=       0KiB time=00:00:01.10 bitrate=   0.3kbits/s speed=0.0175x elapsed=0:01:03.01    \nframe=   35 fps=0.6 q=46.6 size=       0KiB time=00:00:01.10 bitrate=   0.3kbits/s speed=0.0173x elapsed=0:01:03.52    \nframe=   36 fps=0.6 q=48.0 size=       0KiB time=00:00:01.13 bitrate=   0.3kbits/s speed=0.0177x elapsed=0:01:04.05    \nframe=   36 fps=0.6 q=48.0 size=       0KiB time=00:00:01.13 bitrate=   0.3kbits/s speed=0.0175x elapsed=0:01:04.58    \nframe=   37 fps=0.6 q=46.9 size=       0KiB time=00:00:01.16 bitrate=   0.3kbits/s speed=0.0179x elapsed=0:01:05.09    \nframe=   37 fps=0.6 q=46.9 size=       0KiB time=00:00:01.16 bitrate=   0.3kbits/s speed=0.0178x elapsed=0:01:05.62    \nframe=   38 fps=0.6 q=41.4 size=       0KiB time=00:00:01.20 bitrate=   0.3kbits/s speed=0.0181x elapsed=0:01:06.16    \nframe=   38 fps=0.6 q=41.4 size=       0KiB time=00:00:01.20 bitrate=   0.3kbits/s speed=0.018x elapsed=0:01:06.71    \nframe=   39 fps=0.6 q=46.4 size=       0KiB time=00:00:01.23 bitrate=   0.3kbits/s speed=0.0183x elapsed=0:01:07.24    \nframe=   39 fps=0.6 q=46.4 size=       0KiB time=00:00:01.23 bitrate=   0.3kbits/s speed=0.0182x elapsed=0:01:07.76    \nframe=   39 fps=0.6 q=46.4 size=       0KiB time=00:00:01.23 bitrate=   0.3kbits/s speed=0.0181x elapsed=0:01:08.28    \nframe=   39 fps=0.6 q=46.4 size=       0KiB time=00:00:01.23 bitrate=   0.3kbits/s speed=0.0179x elapsed=0:01:08.80    \nframe=   39 fps=0.6 q=46.4 size=       0KiB time=00:00:01.23 bitrate=   0.3kbits/s speed=0.0178x elapsed=0:01:09.32    \nframe=   39 fps=0.6 q=46.4 size=       0KiB time=00:00:01.23 bitrate=   0.3kbits/s speed=0.0177x elapsed=0:01:09.85    \nframe=   40 fps=0.6 q=48.0 size=       0KiB time=00:00:01.26 bitrate=   0.3kbits/s speed=0.018x elapsed=0:01:10.37    \nframe=   40 fps=0.6 q=48.0 size=       0KiB time=00:00:01.26 bitrate=   0.3kbits/s speed=0.0179x elapsed=0:01:10.91    \nframe=   41 fps=0.6 q=48.0 size=       0KiB time=00:00:01.30 bitrate=   0.3kbits/s speed=0.0182x elapsed=0:01:11.44    \nframe=   42 fps=0.6 q=41.5 size=       0KiB time=00:00:01.33 bitrate=   0.3kbits/s speed=0.0185x elapsed=0:01:11.94    \nframe=   42 fps=0.6 q=41.5 size=       0KiB time=00:00:01.33 bitrate=   0.3kbits/s speed=0.0184x elapsed=0:01:12.46    \nframe=   42 fps=0.6 q=41.5 size=       0KiB time=00:00:01.33 bitrate=   0.3kbits/s speed=0.0183x elapsed=0:01:12.99    \nframe=   43 fps=0.6 q=46.1 size=       0KiB time=00:00:01.36 bitrate=   0.3kbits/s speed=0.0186x elapsed=0:01:13.52    \nframe=   43 fps=0.6 q=46.1 size=       0KiB time=00:00:01.36 bitrate=   0.3kbits/s speed=0.0185x elapsed=0:01:14.05    \nframe=   44 fps=0.6 q=47.6 size=       0KiB time=00:00:01.40 bitrate=   0.3kbits/s speed=0.0188x elapsed=0:01:14.57    \nframe=   45 fps=0.6 q=41.4 size=       0KiB time=00:00:01.43 bitrate=   0.2kbits/s speed=0.0191x elapsed=0:01:15.10    \nframe=   46 fps=0.6 q=44.4 size=       0KiB time=00:00:01.46 bitrate=   0.2kbits/s speed=0.0194x elapsed=0:01:15.64    \nframe=   46 fps=0.6 q=44.4 size=       0KiB time=00:00:01.46 bitrate=   0.2kbits/s speed=0.0193x elapsed=0:01:16.16    \nframe=   46 fps=0.6 q=44.4 size=       0KiB time=00:00:01.46 bitrate=   0.2kbits/s speed=0.0191x elapsed=0:01:16.68    \nframe=   47 fps=0.6 q=45.8 size=       0KiB time=00:00:01.50 bitrate=   0.2kbits/s speed=0.0194x elapsed=0:01:17.19    \nframe=   47 fps=0.6 q=45.8 size=       0KiB time=00:00:01.50 bitrate=   0.2kbits/s speed=0.0193x elapsed=0:01:17.71    \nframe=   48 fps=0.6 q=46.7 size=       0KiB time=00:00:01.53 bitrate=   0.2kbits/s speed=0.0196x elapsed=0:01:18.23    \nframe=   48 fps=0.6 q=46.7 size=       0KiB time=00:00:01.53 bitrate=   0.2kbits/s speed=0.0195x elapsed=0:01:18.75    \nframe=   48 fps=0.6 q=46.7 size=       0KiB time=00:00:01.53 bitrate=   0.2kbits/s speed=0.0193x elapsed=0:01:19.29    \nframe=   48 fps=0.6 q=46.7 size=       0KiB time=00:00:01.53 bitrate=   0.2kbits/s speed=0.0192x elapsed=0:01:19.83    \nframe=   48 fps=0.6 q=46.7 size=       0KiB time=00:00:01.53 bitrate=   0.2kbits/s speed=0.0191x elapsed=0:01:20.40    \nframe=   48 fps=0.6 q=46.7 size=       0KiB time=00:00:01.53 bitrate=   0.2kbits/s speed=0.0189x elapsed=0:01:20.98    \nframe=   48 fps=0.6 q=46.7 size=       0KiB time=00:00:01.53 bitrate=   0.2kbits/s speed=0.0188x elapsed=0:01:21.51    \nframe=   49 fps=0.6 q=41.5 size=       0KiB time=00:00:01.56 bitrate=   0.2kbits/s speed=0.0191x elapsed=0:01:22.04    \nframe=   50 fps=0.6 q=45.8 size=       0KiB time=00:00:01.60 bitrate=   0.2kbits/s speed=0.0194x elapsed=0:01:22.55    \nframe=   50 fps=0.6 q=45.8 size=       0KiB time=00:00:01.60 bitrate=   0.2kbits/s speed=0.0193x elapsed=0:01:23.07    \nframe=   51 fps=0.6 q=46.8 size=       0KiB time=00:00:01.63 bitrate=   0.2kbits/s speed=0.0195x elapsed=0:01:23.60    \nframe=   51 fps=0.6 q=46.8 size=       0KiB time=00:00:01.63 bitrate=   0.2kbits/s speed=0.0194x elapsed=0:01:24.11    \nframe=   52 fps=0.6 q=46.5 size=       0KiB time=00:00:01.66 bitrate=   0.2kbits/s speed=0.0197x elapsed=0:01:24.64    \nframe=   53 fps=0.6 q=45.9 size=       0KiB time=00:00:01.70 bitrate=   0.2kbits/s speed=0.02x elapsed=0:01:25.15    \nframe=   55 fps=0.6 q=45.5 size=       0KiB time=00:00:01.76 bitrate=   0.2kbits/s speed=0.0206x elapsed=0:01:25.67    \nframe=   55 fps=0.6 q=45.5 size=       0KiB time=00:00:01.76 bitrate=   0.2kbits/s speed=0.0205x elapsed=0:01:26.19    \nframe=   56 fps=0.6 q=47.1 size=       0KiB time=00:00:01.80 bitrate=   0.2kbits/s speed=0.0208x elapsed=0:01:26.70    \nframe=   57 fps=0.7 q=46.9 size=       0KiB time=00:00:01.83 bitrate=   0.2kbits/s speed=0.021x elapsed=0:01:27.22    \nframe=   59 fps=0.7 q=45.8 size=       0KiB time=00:00:01.90 bitrate=   0.2kbits/s speed=0.0217x elapsed=0:01:27.73    \nframe=   59 fps=0.7 q=45.8 size=       0KiB time=00:00:01.90 bitrate=   0.2kbits/s speed=0.0215x elapsed=0:01:28.25    \nframe=   60 fps=0.7 q=47.0 size=       0KiB time=00:00:01.93 bitrate=   0.2kbits/s speed=0.0218x elapsed=0:01:28.76    \nframe=   61 fps=0.7 q=46.9 size=       0KiB time=00:00:01.96 bitrate=   0.2kbits/s speed=0.022x elapsed=0:01:29.27    \nframe=   61 fps=0.7 q=46.9 size=       0KiB time=00:00:01.96 bitrate=   0.2kbits/s speed=0.0219x elapsed=0:01:29.81    \nframe=   61 fps=0.7 q=46.9 size=       0KiB time=00:00:01.96 bitrate=   0.2kbits/s speed=0.0218x elapsed=0:01:30.40    \nframe=   63 fps=0.7 q=44.6 size=       0KiB time=00:00:02.03 bitrate=   0.2kbits/s speed=0.0224x elapsed=0:01:30.93    \nframe=   63 fps=0.7 q=44.6 size=       0KiB time=00:00:02.03 bitrate=   0.2kbits/s speed=0.0222x elapsed=0:01:31.47    \nframe=   63 fps=0.7 q=44.6 size=       0KiB time=00:00:02.03 bitrate=   0.2kbits/s speed=0.0221x elapsed=0:01:31.99    \nframe=   64 fps=0.7 q=47.1 size=       0KiB time=00:00:02.06 bitrate=   0.2kbits/s speed=0.0223x elapsed=0:01:32.52    \nframe=   65 fps=0.7 q=47.1 size=       0KiB time=00:00:02.10 bitrate=   0.2kbits/s speed=0.0226x elapsed=0:01:33.06    \nframe=   66 fps=0.7 q=41.3 size=       0KiB time=00:00:02.13 bitrate=   0.2kbits/s speed=0.0228x elapsed=0:01:33.59    \nframe=   66 fps=0.7 q=41.3 size=       0KiB time=00:00:02.13 bitrate=   0.2kbits/s speed=0.0227x elapsed=0:01:34.10    \nframe=   66 fps=0.7 q=41.3 size=       0KiB time=00:00:02.13 bitrate=   0.2kbits/s speed=0.0225x elapsed=0:01:34.63    \nframe=   66 fps=0.7 q=41.3 size=       0KiB time=00:00:02.13 bitrate=   0.2kbits/s speed=0.0224x elapsed=0:01:35.15    \nframe=   67 fps=0.7 q=44.6 size=       0KiB time=00:00:02.16 bitrate=   0.2kbits/s speed=0.0226x elapsed=0:01:35.69    \nframe=   68 fps=0.7 q=47.1 size=       0KiB time=00:00:02.20 bitrate=   0.2kbits/s speed=0.0229x elapsed=0:01:36.23    \nframe=   68 fps=0.7 q=47.1 size=       0KiB time=00:00:02.20 bitrate=   0.2kbits/s speed=0.0227x elapsed=0:01:36.77    \nframe=   68 fps=0.7 q=47.1 size=       0KiB time=00:00:02.20 bitrate=   0.2kbits/s speed=0.0226x elapsed=0:01:37.28    \nframe=   68 fps=0.7 q=47.1 size=       0KiB time=00:00:02.20 bitrate=   0.2kbits/s speed=0.0225x elapsed=0:01:37.80    \nframe=   70 fps=0.7 q=44.4 size=     256KiB time=00:00:02.26 bitrate= 925.4kbits/s speed=0.0231x elapsed=0:01:38.32    \nframe=   70 fps=0.7 q=44.4 size=     256KiB time=00:00:02.26 bitrate= 925.4kbits/s speed=0.0229x elapsed=0:01:38.84    \nframe=   71 fps=0.7 q=46.2 size=     256KiB time=00:00:02.30 bitrate= 912.0kbits/s speed=0.0231x elapsed=0:01:39.38    \nframe=   72 fps=0.7 q=46.3 size=     256KiB time=00:00:02.33 bitrate= 898.9kbits/s speed=0.0234x elapsed=0:01:39.90    \nframe=   72 fps=0.7 q=46.3 size=     256KiB time=00:00:02.33 bitrate= 898.9kbits/s speed=0.0232x elapsed=0:01:40.42    \nframe=   72 fps=0.7 q=46.3 size=     256KiB time=00:00:02.33 bitrate= 898.9kbits/s speed=0.0231x elapsed=0:01:40.93    \nframe=   72 fps=0.7 q=46.3 size=     256KiB time=00:00:02.33 bitrate= 898.9kbits/s speed=0.023x elapsed=0:01:41.45    \nframe=   72 fps=0.7 q=46.3 size=     256KiB time=00:00:02.33 bitrate= 898.9kbits/s speed=0.0229x elapsed=0:01:41.96    \nframe=   74 fps=0.7 q=44.1 size=     256KiB time=00:00:02.40 bitrate= 874.0kbits/s speed=0.0234x elapsed=0:01:42.49    \nframe=   74 fps=0.7 q=44.1 size=     256KiB time=00:00:02.40 bitrate= 874.0kbits/s speed=0.0233x elapsed=0:01:43.01    \nframe=   74 fps=0.7 q=44.1 size=     256KiB time=00:00:02.40 bitrate= 874.0kbits/s speed=0.0232x elapsed=0:01:43.56    \nframe=   75 fps=0.7 q=47.1 size=     256KiB time=00:00:02.43 bitrate= 862.0kbits/s speed=0.0234x elapsed=0:01:44.07    \nframe=   76 fps=0.7 q=46.1 size=     256KiB time=00:00:02.46 bitrate= 850.3kbits/s speed=0.0236x elapsed=0:01:44.61    \nframe=   76 fps=0.7 q=46.1 size=     256KiB time=00:00:02.46 bitrate= 850.3kbits/s speed=0.0235x elapsed=0:01:45.15    \nframe=   76 fps=0.7 q=46.1 size=     256KiB time=00:00:02.46 bitrate= 850.3kbits/s speed=0.0233x elapsed=0:01:45.66    \nframe=   76 fps=0.7 q=46.1 size=     256KiB time=00:00:02.46 bitrate= 850.3kbits/s speed=0.0232x elapsed=0:01:46.18    \nframe=   76 fps=0.7 q=46.1 size=     256KiB time=00:00:02.46 bitrate= 850.3kbits/s speed=0.0231x elapsed=0:01:46.69    \nframe=   76 fps=0.7 q=46.1 size=     256KiB time=00:00:02.46 bitrate= 850.3kbits/s speed=0.023x elapsed=0:01:47.22    \nframe=   78 fps=0.7 q=44.4 size=     256KiB time=00:00:02.53 bitrate= 828.0kbits/s speed=0.0235x elapsed=0:01:47.74    \nframe=   79 fps=0.7 q=46.2 size=     256KiB time=00:00:02.56 bitrate= 817.2kbits/s speed=0.0237x elapsed=0:01:48.26    \nframe=   79 fps=0.7 q=46.2 size=     256KiB time=00:00:02.56 bitrate= 817.2kbits/s speed=0.0236x elapsed=0:01:48.78    \nframe=   79 fps=0.7 q=46.2 size=     256KiB time=00:00:02.56 bitrate= 817.2kbits/s speed=0.0235x elapsed=0:01:49.29    \nframe=   79 fps=0.7 q=46.2 size=     256KiB time=00:00:02.56 bitrate= 817.2kbits/s speed=0.0234x elapsed=0:01:49.85    \nframe=   79 fps=0.7 q=46.2 size=     256KiB time=00:00:02.56 bitrate= 817.2kbits/s speed=0.0233x elapsed=0:01:50.35    \nframe=   80 fps=0.7 q=45.9 size=     256KiB time=00:00:02.60 bitrate= 806.7kbits/s speed=0.0235x elapsed=0:01:50.87    \nframe=   81 fps=0.7 q=40.8 size=     256KiB time=00:00:02.63 bitrate= 796.5kbits/s speed=0.0236x elapsed=0:01:51.38    \nframe=   82 fps=0.7 q=44.8 size=     256KiB time=00:00:02.66 bitrate= 786.6kbits/s speed=0.0238x elapsed=0:01:51.89    \nframe=   82 fps=0.7 q=44.8 size=     256KiB time=00:00:02.66 bitrate= 786.6kbits/s speed=0.0237x elapsed=0:01:52.41    \nframe=   83 fps=0.7 q=46.2 size=     256KiB time=00:00:02.70 bitrate= 776.9kbits/s speed=0.0239x elapsed=0:01:52.93    \nframe=   84 fps=0.7 q=46.3 size=     256KiB time=00:00:02.73 bitrate= 767.4kbits/s speed=0.0241x elapsed=0:01:53.45    \nframe=   84 fps=0.7 q=46.3 size=     256KiB time=00:00:02.73 bitrate= 767.4kbits/s speed=0.024x elapsed=0:01:53.98    \nframe=   84 fps=0.7 q=46.3 size=     256KiB time=00:00:02.73 bitrate= 767.4kbits/s speed=0.0239x elapsed=0:01:54.50    \nframe=   84 fps=0.7 q=46.3 size=     256KiB time=00:00:02.73 bitrate= 767.4kbits/s speed=0.0238x elapsed=0:01:55.03    \nframe=   84 fps=0.7 q=46.3 size=     256KiB time=00:00:02.73 bitrate= 767.4kbits/s speed=0.0237x elapsed=0:01:55.54    \nframe=   85 fps=0.7 q=41.0 size=     256KiB time=00:00:02.76 bitrate= 758.1kbits/s speed=0.0238x elapsed=0:01:56.07    \nframe=   85 fps=0.7 q=41.0 size=     256KiB time=00:00:02.76 bitrate= 758.1kbits/s speed=0.0237x elapsed=0:01:56.59    \nframe=   86 fps=0.7 q=44.9 size=     256KiB time=00:00:02.80 bitrate= 749.1kbits/s speed=0.0239x elapsed=0:01:57.12    \nframe=   86 fps=0.7 q=44.9 size=     256KiB time=00:00:02.80 bitrate= 749.1kbits/s speed=0.0238x elapsed=0:01:57.64    \nframe=   87 fps=0.7 q=46.6 size=     256KiB time=00:00:02.83 bitrate= 740.3kbits/s speed=0.024x elapsed=0:01:58.19    \nframe=   87 fps=0.7 q=46.6 size=     256KiB time=00:00:02.83 bitrate= 740.3kbits/s speed=0.0239x elapsed=0:01:58.70    \nframe=   87 fps=0.7 q=46.6 size=     256KiB time=00:00:02.83 bitrate= 740.3kbits/s speed=0.0238x elapsed=0:01:59.23    \nframe=   88 fps=0.7 q=46.0 size=     256KiB time=00:00:02.86 bitrate= 731.7kbits/s speed=0.0239x elapsed=0:01:59.78    \nframe=   89 fps=0.7 q=46.1 size=     256KiB time=00:00:02.90 bitrate= 723.3kbits/s speed=0.0241x elapsed=0:02:00.30    \nframe=   89 fps=0.7 q=46.1 size=     256KiB time=00:00:02.90 bitrate= 723.3kbits/s speed=0.024x elapsed=0:02:00.83    \nframe=   89 fps=0.7 q=46.1 size=     256KiB time=00:00:02.90 bitrate= 723.3kbits/s speed=0.0239x elapsed=0:02:01.37    \nframe=   89 fps=0.7 q=46.1 size=     256KiB time=00:00:02.90 bitrate= 723.3kbits/s speed=0.0238x elapsed=0:02:01.92    \nframe=   90 fps=0.7 q=40.8 size=     256KiB time=00:00:02.93 bitrate= 715.1kbits/s speed=0.024x elapsed=0:02:02.43    \nframe=   91 fps=0.7 q=44.8 size=     256KiB time=00:00:02.96 bitrate= 707.0kbits/s speed=0.0241x elapsed=0:02:02.98    \nframe=   91 fps=0.7 q=44.8 size=     256KiB time=00:00:02.96 bitrate= 707.0kbits/s speed=0.024x elapsed=0:02:03.51    \nframe=   92 fps=0.7 q=46.5 size=     256KiB time=00:00:03.00 bitrate= 699.2kbits/s speed=0.0242x elapsed=0:02:04.02    \nframe=   93 fps=0.7 q=46.3 size=     256KiB time=00:00:03.03 bitrate= 691.5kbits/s speed=0.0244x elapsed=0:02:04.56    \nframe=   93 fps=0.7 q=46.3 size=     256KiB time=00:00:03.03 bitrate= 691.5kbits/s speed=0.0243x elapsed=0:02:05.08    \nframe=   94 fps=0.7 q=46.1 size=     256KiB time=00:00:03.06 bitrate= 684.0kbits/s speed=0.0244x elapsed=0:02:05.60    \nframe=   94 fps=0.7 q=46.1 size=     256KiB time=00:00:03.06 bitrate= 684.0kbits/s speed=0.0243x elapsed=0:02:06.12    \nframe=   96 fps=0.8 q=44.1 size=     256KiB time=00:00:03.13 bitrate= 669.4kbits/s speed=0.0247x elapsed=0:02:06.64    \nframe=   96 fps=0.8 q=44.1 size=     256KiB time=00:00:03.13 bitrate= 669.4kbits/s speed=0.0246x elapsed=0:02:07.19    \nframe=   97 fps=0.8 q=45.8 size=     256KiB time=00:00:03.16 bitrate= 662.4kbits/s speed=0.0248x elapsed=0:02:07.71    \nframe=   97 fps=0.8 q=45.8 size=     256KiB time=00:00:03.16 bitrate= 662.4kbits/s speed=0.0247x elapsed=0:02:08.24    \nframe=   98 fps=0.8 q=45.9 size=     256KiB time=00:00:03.20 bitrate= 655.5kbits/s speed=0.0248x elapsed=0:02:08.77    \nframe=   99 fps=0.8 q=40.3 size=     256KiB time=00:00:03.23 bitrate= 648.7kbits/s speed=0.025x elapsed=0:02:09.29    \nframe=  100 fps=0.8 q=43.7 size=     256KiB time=00:00:03.26 bitrate= 642.1kbits/s speed=0.0252x elapsed=0:02:09.81    \nframe=  100 fps=0.8 q=43.7 size=     256KiB time=00:00:03.26 bitrate= 642.1kbits/s speed=0.0251x elapsed=0:02:10.33    \nframe=  101 fps=0.8 q=46.0 size=     256KiB time=00:00:03.30 bitrate= 635.6kbits/s speed=0.0252x elapsed=0:02:10.86    \nframe=  101 fps=0.8 q=46.0 size=     256KiB time=00:00:03.30 bitrate= 635.6kbits/s speed=0.0251x elapsed=0:02:11.40    \nframe=  102 fps=0.8 q=45.7 size=     256KiB time=00:00:03.33 bitrate= 629.3kbits/s speed=0.0253x elapsed=0:02:11.93    \nframe=  102 fps=0.8 q=45.7 size=     256KiB time=00:00:03.33 bitrate= 629.3kbits/s speed=0.0252x elapsed=0:02:12.51    \nframe=  102 fps=0.8 q=45.7 size=     256KiB time=00:00:03.33 bitrate= 629.3kbits/s speed=0.025x elapsed=0:02:13.08    \nframe=  102 fps=0.8 q=45.7 size=     256KiB time=00:00:03.33 bitrate= 629.3kbits/s speed=0.0249x elapsed=0:02:13.60    \nframe=  102 fps=0.8 q=45.7 size=     256KiB time=00:00:03.33 bitrate= 629.3kbits/s speed=0.0249x elapsed=0:02:14.12    \nframe=  104 fps=0.8 q=43.5 size=     256KiB time=00:00:03.40 bitrate= 616.9kbits/s speed=0.0253x elapsed=0:02:14.64    \nframe=  104 fps=0.8 q=43.5 size=     256KiB time=00:00:03.40 bitrate= 616.9kbits/s speed=0.0252x elapsed=0:02:15.16    \nframe=  105 fps=0.8 q=45.9 size=     256KiB time=00:00:03.43 bitrate= 610.9kbits/s speed=0.0253x elapsed=0:02:15.69    \nframe=  106 fps=0.8 q=45.7 size=     256KiB time=00:00:03.46 bitrate= 605.0kbits/s speed=0.0255x elapsed=0:02:16.19    \nframe=  107 fps=0.8 q=40.6 size=     256KiB time=00:00:03.50 bitrate= 599.3kbits/s speed=0.0256x elapsed=0:02:16.71    \nframe=  108 fps=0.8 q=43.8 size=     256KiB time=00:00:03.53 bitrate= 593.6kbits/s speed=0.0257x elapsed=0:02:17.23    \nframe=  108 fps=0.8 q=43.8 size=     256KiB time=00:00:03.53 bitrate= 593.6kbits/s speed=0.0256x elapsed=0:02:17.75    \nframe=  109 fps=0.8 q=46.1 size=     256KiB time=00:00:03.56 bitrate= 588.1kbits/s speed=0.0258x elapsed=0:02:18.26    \nframe=  111 fps=0.8 q=40.7 size=     256KiB time=00:00:03.63 bitrate= 577.3kbits/s speed=0.0262x elapsed=0:02:18.77    \nframe=  112 fps=0.8 q=43.1 size=     256KiB time=00:00:03.66 bitrate= 572.0kbits/s speed=0.0263x elapsed=0:02:19.30    \nframe=  113 fps=0.8 q=45.6 size=     256KiB time=00:00:03.70 bitrate= 566.9kbits/s speed=0.0265x elapsed=0:02:19.80    \nframe=  114 fps=0.8 q=44.8 size=     256KiB time=00:00:03.73 bitrate= 561.8kbits/s speed=0.0266x elapsed=0:02:20.33    \nframe=  116 fps=0.8 q=43.3 size=     256KiB time=00:00:03.80 bitrate= 552.0kbits/s speed=0.027x elapsed=0:02:20.83    \nframe=  116 fps=0.8 q=43.3 size=     256KiB time=00:00:03.80 bitrate= 552.0kbits/s speed=0.0269x elapsed=0:02:21.36    \nframe=  118 fps=0.8 q=45.8 size=     256KiB time=00:00:03.86 bitrate= 542.5kbits/s speed=0.0273x elapsed=0:02:21.87    \nframe=  119 fps=0.8 q=40.8 size=     256KiB time=00:00:03.90 bitrate= 537.8kbits/s speed=0.0274x elapsed=0:02:22.39    \nframe=  120 fps=0.8 q=43.3 size=     256KiB time=00:00:03.93 bitrate= 533.3kbits/s speed=0.0275x elapsed=0:02:22.90    \nframe=  121 fps=0.8 q=45.9 size=     256KiB time=00:00:03.96 bitrate= 528.8kbits/s speed=0.0277x elapsed=0:02:23.42    \nframe=  122 fps=0.8 q=45.8 size=     256KiB time=00:00:04.00 bitrate= 524.4kbits/s speed=0.0278x elapsed=0:02:23.93    \nframe=  123 fps=0.9 q=40.3 size=     256KiB time=00:00:04.03 bitrate= 520.0kbits/s speed=0.0279x elapsed=0:02:24.45    \nframe=  124 fps=0.9 q=43.4 size=     256KiB time=00:00:04.06 bitrate= 515.8kbits/s speed=0.0281x elapsed=0:02:24.96    \nframe=  125 fps=0.9 q=44.9 size=     256KiB time=00:00:04.10 bitrate= 511.6kbits/s speed=0.0282x elapsed=0:02:25.48    \nframe=  125 fps=0.9 q=44.9 size=     256KiB time=00:00:04.10 bitrate= 511.6kbits/s speed=0.0281x elapsed=0:02:25.99    \nframe=  127 fps=0.9 q=40.4 size=     256KiB time=00:00:04.16 bitrate= 503.4kbits/s speed=0.0284x elapsed=0:02:26.51    \nframe=  127 fps=0.9 q=40.4 size=     256KiB time=00:00:04.16 bitrate= 503.4kbits/s speed=0.0283x elapsed=0:02:27.03    \nframe=  128 fps=0.9 q=43.4 size=     256KiB time=00:00:04.20 bitrate= 499.4kbits/s speed=0.0285x elapsed=0:02:27.53    \nframe=  128 fps=0.9 q=43.4 size=     256KiB time=00:00:04.20 bitrate= 499.4kbits/s speed=0.0284x elapsed=0:02:28.06    \nframe=  130 fps=0.9 q=44.8 size=     256KiB time=00:00:04.26 bitrate= 491.6kbits/s speed=0.0287x elapsed=0:02:28.57    \nframe=  132 fps=0.9 q=42.7 size=     512KiB time=00:00:04.33 bitrate= 968.0kbits/s speed=0.0291x elapsed=0:02:29.09    \nframe=  132 fps=0.9 q=42.7 size=     512KiB time=00:00:04.33 bitrate= 968.0kbits/s speed=0.029x elapsed=0:02:29.60    \nframe=  133 fps=0.9 q=44.8 size=     512KiB time=00:00:04.36 bitrate= 960.6kbits/s speed=0.0291x elapsed=0:02:30.13    \nframe=  134 fps=0.9 q=44.8 size=     512KiB time=00:00:04.36 bitrate= 960.6kbits/s speed=0.029x elapsed=0:02:30.71    \nframe=  134 fps=0.9 q=44.8 size=     512KiB time=00:00:04.40 bitrate= 953.3kbits/s speed=0.0291x elapsed=0:02:31.26    \nframe=  134 fps=0.9 q=44.8 size=     512KiB time=00:00:04.40 bitrate= 953.3kbits/s speed=0.029x elapsed=0:02:31.80    \nframe=  135 fps=0.9 q=40.4 size=     512KiB time=00:00:04.43 bitrate= 946.2kbits/s speed=0.0291x elapsed=0:02:32.31    \nframe=  135 fps=0.9 q=40.4 size=     512KiB time=00:00:04.43 bitrate= 946.2kbits/s speed=0.029x elapsed=0:02:32.83    \nframe=  136 fps=0.9 q=42.8 size=     512KiB time=00:00:04.46 bitrate= 939.1kbits/s speed=0.0291x elapsed=0:02:33.35    \nframe=  136 fps=0.9 q=42.8 size=     512KiB time=00:00:04.46 bitrate= 939.1kbits/s speed=0.029x elapsed=0:02:33.87    \nframe=  136 fps=0.9 q=42.8 size=     512KiB time=00:00:04.46 bitrate= 939.1kbits/s speed=0.0289x elapsed=0:02:34.38    \nframe=  137 fps=0.9 q=44.8 size=     512KiB time=00:00:04.50 bitrate= 932.1kbits/s speed=0.029x elapsed=0:02:34.92    \nframe=  137 fps=0.9 q=44.8 size=     512KiB time=00:00:04.50 bitrate= 932.1kbits/s speed=0.0289x elapsed=0:02:35.46    \nframe=  137 fps=0.9 q=44.8 size=     512KiB time=00:00:04.50 bitrate= 932.1kbits/s speed=0.0288x elapsed=0:02:36.04    \nframe=  137 fps=0.9 q=44.8 size=     512KiB time=00:00:04.50 bitrate= 932.1kbits/s speed=0.0287x elapsed=0:02:36.60    \nframe=  137 fps=0.9 q=44.8 size=     512KiB time=00:00:04.50 bitrate= 932.1kbits/s speed=0.0286x elapsed=0:02:37.14    \nframe=  137 fps=0.9 q=44.8 size=     512KiB time=00:00:04.50 bitrate= 932.1kbits/s speed=0.0285x elapsed=0:02:37.75    \nframe=  137 fps=0.9 q=44.8 size=     512KiB time=00:00:04.50 bitrate= 932.1kbits/s speed=0.0284x elapsed=0:02:38.29    \nframe=  138 fps=0.9 q=44.1 size=     512KiB time=00:00:04.53 bitrate= 925.3kbits/s speed=0.0285x elapsed=0:02:38.85    \nframe=  138 fps=0.9 q=44.1 size=     512KiB time=00:00:04.53 bitrate= 925.3kbits/s speed=0.0284x elapsed=0:02:39.41    \nframe=  139 fps=0.9 q=40.5 size=     512KiB time=00:00:04.56 bitrate= 918.5kbits/s speed=0.0286x elapsed=0:02:39.94    \nframe=  139 fps=0.9 q=40.5 size=     512KiB time=00:00:04.56 bitrate= 918.5kbits/s speed=0.0285x elapsed=0:02:40.47    \nframe=  140 fps=0.9 q=42.6 size=     512KiB time=00:00:04.60 bitrate= 911.9kbits/s speed=0.0286x elapsed=0:02:41.06    \nframe=  140 fps=0.9 q=42.6 size=     512KiB time=00:00:04.60 bitrate= 911.9kbits/s speed=0.0285x elapsed=0:02:41.60    \nframe=  140 fps=0.9 q=42.6 size=     512KiB time=00:00:04.60 bitrate= 911.9kbits/s speed=0.0284x elapsed=0:02:42.15    \nframe=  140 fps=0.9 q=42.6 size=     512KiB time=00:00:04.60 bitrate= 911.9kbits/s speed=0.0283x elapsed=0:02:42.71    \nframe=  140 fps=0.9 q=42.6 size=     512KiB time=00:00:04.60 bitrate= 911.9kbits/s speed=0.0282x elapsed=0:02:43.28    \nframe=  140 fps=0.9 q=42.6 size=     512KiB time=00:00:04.60 bitrate= 911.9kbits/s speed=0.0281x elapsed=0:02:43.86    \nframe=  140 fps=0.9 q=42.6 size=     512KiB time=00:00:04.60 bitrate= 911.9kbits/s speed=0.028x elapsed=0:02:44.41    \nframe=  141 fps=0.9 q=44.4 size=     512KiB time=00:00:04.63 bitrate= 905.3kbits/s speed=0.0281x elapsed=0:02:44.96    \nframe=  141 fps=0.9 q=44.4 size=     512KiB time=00:00:04.63 bitrate= 905.3kbits/s speed=0.028x elapsed=0:02:45.52    \nframe=  141 fps=0.8 q=44.4 size=     512KiB time=00:00:04.63 bitrate= 905.3kbits/s speed=0.0279x elapsed=0:02:46.04    \nframe=  142 fps=0.9 q=43.2 size=     512KiB time=00:00:04.66 bitrate= 898.9kbits/s speed=0.028x elapsed=0:02:46.56    \nframe=  142 fps=0.8 q=43.2 size=     512KiB time=00:00:04.66 bitrate= 898.9kbits/s speed=0.0279x elapsed=0:02:47.17    \nframe=  142 fps=0.8 q=43.2 size=     512KiB time=00:00:04.66 bitrate= 898.9kbits/s speed=0.0278x elapsed=0:02:47.69    \nframe=  142 fps=0.8 q=43.2 size=     512KiB time=00:00:04.66 bitrate= 898.9kbits/s speed=0.0277x elapsed=0:02:48.22    \nframe=  142 fps=0.8 q=43.2 size=     512KiB time=00:00:04.66 bitrate= 898.9kbits/s speed=0.0276x elapsed=0:02:48.78    \nframe=  143 fps=0.8 q=40.5 size=     512KiB time=00:00:04.70 bitrate= 892.5kbits/s speed=0.0278x elapsed=0:02:49.35    \nframe=  143 fps=0.8 q=40.5 size=     512KiB time=00:00:04.70 bitrate= 892.5kbits/s speed=0.0277x elapsed=0:02:49.93    \nframe=  143 fps=0.8 q=40.5 size=     512KiB time=00:00:04.70 bitrate= 892.5kbits/s speed=0.0276x elapsed=0:02:50.50    \nframe=  143 fps=0.8 q=40.5 size=     512KiB time=00:00:04.70 bitrate= 892.5kbits/s speed=0.0275x elapsed=0:02:51.08    \nframe=  143 fps=0.8 q=40.5 size=     512KiB time=00:00:04.70 bitrate= 892.5kbits/s speed=0.0274x elapsed=0:02:51.67    \nframe=  143 fps=0.8 q=40.5 size=     512KiB time=00:00:04.70 bitrate= 892.5kbits/s speed=0.0273x elapsed=0:02:52.20    \nframe=  144 fps=0.8 q=42.0 size=     512KiB time=00:00:04.73 bitrate= 886.2kbits/s speed=0.0274x elapsed=0:02:52.72    \nframe=  144 fps=0.8 q=42.0 size=     512KiB time=00:00:04.73 bitrate= 886.2kbits/s speed=0.0273x elapsed=0:02:53.23    \nframe=  144 fps=0.8 q=42.0 size=     512KiB time=00:00:04.73 bitrate= 886.2kbits/s speed=0.0272x elapsed=0:02:53.79    \nframe=  144 fps=0.8 q=42.0 size=     512KiB time=00:00:04.73 bitrate= 886.2kbits/s speed=0.0272x elapsed=0:02:54.32    \nframe=  145 fps=0.8 q=43.7 size=     512KiB time=00:00:04.76 bitrate= 880.0kbits/s speed=0.0273x elapsed=0:02:54.86    \nframe=  145 fps=0.8 q=43.7 size=     512KiB time=00:00:04.76 bitrate= 880.0kbits/s speed=0.0272x elapsed=0:02:55.41    \nframe=  145 fps=0.8 q=43.7 size=     512KiB time=00:00:04.76 bitrate= 880.0kbits/s speed=0.0271x elapsed=0:02:55.93    \nframe=  145 fps=0.8 q=43.7 size=     512KiB time=00:00:04.76 bitrate= 880.0kbits/s speed=0.027x elapsed=0:02:56.50    \nframe=  146 fps=0.8 q=42.2 size=     512KiB time=00:00:04.80 bitrate= 873.9kbits/s speed=0.0271x elapsed=0:02:57.04    \nframe=  146 fps=0.8 q=42.2 size=     512KiB time=00:00:04.80 bitrate= 873.9kbits/s speed=0.027x elapsed=0:02:57.55    \nframe=  146 fps=0.8 q=42.2 size=     512KiB time=00:00:04.80 bitrate= 873.9kbits/s speed=0.027x elapsed=0:02:58.08    \nframe=  146 fps=0.8 q=42.2 size=     512KiB time=00:00:04.80 bitrate= 873.9kbits/s speed=0.0269x elapsed=0:02:58.62    \nframe=  147 fps=0.8 q=42.0 size=     512KiB time=00:00:04.83 bitrate= 867.9kbits/s speed=0.027x elapsed=0:02:59.17    \nframe=  147 fps=0.8 q=42.0 size=     512KiB time=00:00:04.83 bitrate= 867.9kbits/s speed=0.0269x elapsed=0:02:59.70    \nframe=  147 fps=0.8 q=42.0 size=     512KiB time=00:00:04.83 bitrate= 867.9kbits/s speed=0.0268x elapsed=0:03:00.29    \nframe=  147 fps=0.8 q=42.0 size=     512KiB time=00:00:04.83 bitrate= 867.9kbits/s speed=0.0267x elapsed=0:03:00.84    \nframe=  147 fps=0.8 q=42.0 size=     512KiB time=00:00:04.83 bitrate= 867.9kbits/s speed=0.0266x elapsed=0:03:01.41    \nframe=  147 fps=0.8 q=42.0 size=     512KiB time=00:00:04.83 bitrate= 867.9kbits/s speed=0.0266x elapsed=0:03:01.95    \nframe=  149 fps=0.8 q=39.9 size=     512KiB time=00:00:04.90 bitrate= 856.1kbits/s speed=0.0268x elapsed=0:03:02.52    \nframe=  150 fps=0.8 q=40.5 size=     512KiB time=00:00:04.90 bitrate= 856.1kbits/s speed=0.0268x elapsed=0:03:03.05    \n[mp4 @ 00000263ae569740] Starting second pass: moving the moov atom to the beginning of the file\n[out#0/mp4 @ 00000263ae55ac00] video:594KiB audio:0KiB subtitle:0KiB other streams:0KiB global headers:2KiB muxing overhead: 0.869801%\nframe=  150 fps=0.8 q=40.5 Lsize=     599KiB time=00:00:04.93 bitrate= 994.4kbits/s speed=0.0269x elapsed=0:03:03.07    \nx265 [info]: frame I:      1, Avg QP:42.35  kb/s: 6390.48 \nx265 [info]: frame P:     37, Avg QP:41.54  kb/s: 2885.22 \nx265 [info]: frame B:    112, Avg QP:45.90  kb/s: 291.26  \nx265 [info]: Weighted P-Frames: Y:13.5% UV:13.5%\n\nencoded 150 frames in 182.63s (0.82 fps), 971.77 kb/s, Avg QP:44.80\n",
  "seconds": 183.59368300437927,
  "probe_out": {}
}